<svg xmlns="http://www.w3.org/2000/svg" xmlns:xlink="http://www.w3.org/1999/xlink" width="229" height="155" viewBox="0 0 229 155"><defs><style>.a{fill:none;}.b{isolation:isolate;clip-path:url(#a);}.c{fill:#eee;}.d{fill:#d8d8d8;}.e{fill:url(#b);}.f,.r{fill:#ececec;}.g{fill:#bebebe;}.h{fill:#d5d5d5;}.i,.j{fill:#ae8448;}.i,.j,.p{opacity:0.6;}.k{fill:#f5f5f5;}.l{fill:#c9c9c9;}.m{fill:#e8e8e8;}.n{fill:#e2e2e2;}.o{fill:#fff;}.p{fill:url(#c);}.q{fill:#dbc29e;}.r{stroke:#fff;}.s{fill:url(#d);}.t,.u,.v,.w,.x{stroke:none;}.u{fill:#cfcfcf;}.v{fill:#dedede;}.w{fill:#d9d9d9;}.x{fill:#a47c44;}</style><clipPath id="a"><rect class="a" x="-1" y="9" width="229" height="155"/></clipPath><linearGradient id="b" x1="0.5" y1="0.96" x2="0.5" gradientUnits="objectBoundingBox"><stop offset="0" stop-color="#fbf9f9"/><stop offset="1" stop-color="#eee"/></linearGradient><linearGradient id="c" x1="0.052" y1="0.556" x2="0.399" y2="0.561" gradientUnits="objectBoundingBox"><stop offset="0" stop-color="#ae8448"/><stop offset="0.536" stop-color="#9b7844"/><stop offset="1" stop-color="#ae8448"/></linearGradient><linearGradient id="d" x1="0.936" y1="0.427" x2="0.454" y2="0.385" gradientUnits="objectBoundingBox"><stop offset="0" stop-color="#f3f3f3"/><stop offset="0.529" stop-color="#d9d9d9"/><stop offset="1" stop-color="#f5f5f5"/></linearGradient></defs><g class="b" transform="translate(1 -9)"><path class="c" d="M0,.563,63.941-37.58V45.649L0,83.792Z" transform="translate(65.576 65.878)"/><g class="d" transform="translate(1.31 99.23)"><path class="t" d="M 64.01622009277344 50.00068664550781 L 2.097632884979248 13.18022060394287 L -0.9928786754608154 -55.78611373901367 L 64.01622009277344 -32.61254119873047 L 64.01622009277344 50.00068664550781 Z"/><path class="u" d="M -0.7264823913574219 -55.42574310302734 L 2.341342926025391 13.03427124023438 L 63.76621627807617 49.56114959716797 L 63.76621627807617 -32.43624877929688 L -0.7264823913574219 -55.42574310302734 M -1.25927734375 -56.146484375 L 64.26622009277344 -32.78883361816406 L 64.26622009277344 50.44020843505859 L 1.853923797607422 13.3261547088623 L -1.25927734375 -56.146484375 Z"/></g><g class="e" transform="translate(52.125 -2.972)"><path class="t" d="M 13.42423057556152 69.13804626464844 L -51.44048309326172 46.05532455444336 L 12.93441390991211 18.40120887756348 L 76.70984649658203 31.38582801818848 L 13.42423057556152 69.13804626464844 Z"/><path class="v" d="M 13.39720821380615 68.86307525634766 L 76.02716827392578 31.50197219848633 L 12.96118259429932 18.66179466247559 L -50.75622177124023 46.03346252441406 L 13.39720821380615 68.86307525634766 M 13.45126438140869 69.41303253173828 L -52.12475204467773 46.07717895507813 L 12.90761375427246 18.14062881469727 L 77.39251708984375 31.26969528198242 L 13.45126438140869 69.41303253173828 Z"/></g><g class="f" transform="translate(140.074 29.062) rotate(7)"><path class="t" d="M 25.93228530883789 82.97904205322266 L 0.2500083446502686 82.97904205322266 L 0.2499972879886627 0.2499988079071045 L 25.93227577209473 0.2499988079071045 L 25.93228530883789 82.97904205322266 Z"/><path class="w" d="M 0.4999980926513672 0.5 L 0.5000076293945313 82.72904205322266 L 25.68228530883789 82.72904205322266 L 25.68227577209473 0.5 L 0.4999980926513672 0.5 M -1.9073486328125e-06 0 L 26.18227577209473 0 L 26.18228530883789 83.22904205322266 L 7.62939453125e-06 83.22904205322266 L -1.9073486328125e-06 0 Z"/></g><path class="g" d="M5.9,52.239,69.836,14.1,63.941,32.314,0,70.457Z" transform="translate(65.576 -4.015)"/><path class="h" d="M0,.563,63.941-37.58V45.649L0,21.282Z" transform="translate(65.576 65.878)"/><path class="i" d="M0,12.806,25.8,0,24.263,15.4,0,28.874l1.183-1.864L0,26.329l1.157-1.882L0,23.852l1.185-1.931L0,21.308l1.112-2.056L0,18.445l1.2-2.032L0,15.539,1.3,13.75Z" transform="translate(121.733 164.82) rotate(-126)"/><g class="j" transform="matrix(-0.485, -0.875, 0.875, -0.485, 40.978, 57.95)"><path class="t" d="M 0.6439407467842102 43.20257949829102 L 1.045740008354187 42.16669082641602 L 1.12460994720459 41.96335983276367 L 0.9338600039482117 41.85762023925781 L 0.339862197637558 41.52836608886719 L 1.268929958343506 39.85227966308594 L 1.390130043029785 39.63362884521484 L 1.171470046043396 39.51242065429688 L 0.3214957416057587 39.04127502441406 L 1.136019945144653 37.21012878417969 L 1.229089975357056 37.00088882446289 L 1.028800010681152 36.88986206054688 L 0.3264777958393097 36.50055694580078 L 1.301519989967346 34.44554138183594 L 1.402119994163513 34.23350143432617 L 1.196849942207336 34.11970901489258 L 0.339861661195755 33.64467620849609 L 1.450989961624146 31.64014053344727 L 1.572190046310425 31.42148971557617 L 1.353530049324036 31.30029106140137 L 0.3398492336273193 30.7383918762207 L 1.377249956130981 28.86687088012695 L 1.498460054397583 28.64822006225586 L 1.279800057411194 28.52702140808105 L 0.4212436378002167 28.05110931396484 L 29.64779090881348 0.6388556957244873 L 28.01971435546875 16.78448867797852 L 0.6439407467842102 43.20257949829102 Z"/><path class="x" d="M 1.287869572639465 42.23376083374023 L 27.7801685333252 16.66823959350586 L 29.33210372924805 1.277689456939697 L 0.842484712600708 27.9987621307373 L 1.401010036468506 28.3083610534668 L 1.83831000328064 28.5507698059082 L 1.595909953117371 28.98807144165039 L 0.67971271276474 30.64093399047852 L 1.474740028381348 31.08163070678711 L 1.912039995193481 31.32404136657715 L 1.669639945030212 31.7613410949707 L 0.6797114610671997 33.54722595214844 L 1.318050026893616 33.90106201171875 L 1.72859001159668 34.12862014770508 L 1.527379989624023 34.55270004272461 L 0.6529401540756226 36.39568710327148 L 1.149999976158142 36.67121124267578 L 1.550590038299561 36.89326095581055 L 1.364439964294434 37.31172943115234 L 0.6429843306541443 38.93364715576172 L 1.292670011520386 39.29376983642578 L 1.729990005493164 39.53617095947266 L 1.487579941749573 39.97348022460938 L 0.6797124743461609 41.43091583251953 L 1.055060029029846 41.63896942138672 L 1.436560034751892 41.85042953491211 L 1.287869572639465 42.23376083374023 M -2.136232524208026e-09 44.17142105102539 L 0.8126599788665771 42.07627868652344 L -2.136232524208026e-09 41.62582015991211 L 1.050269961357117 39.7310791015625 L -2.136232524208026e-09 39.14891052246094 L 0.9075999855995178 37.1085205078125 L -2.136232524208026e-09 36.60543060302734 L 1.075649976730347 34.33837127685547 L -2.136232524208026e-09 33.74213027954102 L 1.232329964637756 31.51893997192383 L -2.136232524208026e-09 30.83584022521973 L 1.158599972724915 28.74567031860352 L -2.136232524208026e-09 28.10344123840332 L 29.96347999572754 5.255126893644047e-07 L 28.2592601776123 16.9007511138916 L -2.136232524208026e-09 44.17142105102539 Z"/></g><path class="k" d="M.012.447,63.937-37.629,84.546-25.273,21.274,13.687Z" transform="translate(65.579 149.178)"/><path class="l" d="M0,.276.24,0,7.6,23.834l-.349.4Z" transform="translate(65.461 149.802) rotate(-41)"/><path class="l" d="M0,.4.348,0,73.694,12.135l-.271.312Z" transform="translate(86.539 163.044) rotate(-41)"/><path class="m" d="M.223.193,0,0,73.193,13.149l.267.232Z" transform="translate(71.174 48.194) rotate(-41)"/><path class="n" d="M0,.115.271,0l1.72,19.044h-.3Z" transform="matrix(0.921, 0.391, -0.391, 0.921, 71.18, 48.108)"/><path class="i" d="M12.7-6.607l-19.239-3V-.232L12.7,4.837Z" transform="translate(116.813 51.923)"/><path class="i" d="M11.37-9.231l-17.907.019,0,11.425H11.37Z" transform="translate(136.058 54.536)"/><path class="i" d="M17.725-5.921-5.916-12.268v9.374L17.725,5.524Z" transform="translate(111.786 81.713)"/><path class="i" d="M3.859-12.221l-9.991-.016V-.776H3.859Z" transform="translate(135.634 88.011)"/><path class="o" d="M96.608-47.644,61-34.983V48.246L96.608,35.585Z" transform="translate(4.576 101.425)"/><g transform="translate(188.709 130.838)"><path class="p" d="M18.884-4.276c6.723,0,15.108-1.889,18.873-.505.048.084,0,12.074,0,12.928,0,2.405-5.221,6.867-18.873,6.867S.012,10.552.012,8.146c0-.678-.084-12.759,0-12.928C2.653-6.054,11.4-4.276,18.884-4.276Z" transform="translate(0.026 11.212)"/><ellipse class="q" cx="18.873" cy="6.36" rx="18.873" ry="6.36" transform="translate(0.059)"/><g class="r" transform="translate(4.414 1.016)"><ellipse class="t" cx="14.518" cy="4.908" rx="14.518" ry="4.908"/><ellipse class="a" cx="14.518" cy="4.908" rx="14.018" ry="4.408"/></g><path class="s" d="M13.066,0c7.216,0,13.066,1.787,13.066,3.992s-5.85,3.992-13.066,3.992S0,6.2,0,3.992,5.85,0,13.066,0Z" transform="translate(5.866 1.65)"/></g></g></svg>