<svg xmlns="http://www.w3.org/2000/svg" xmlns:xlink="http://www.w3.org/1999/xlink" width="137" height="138" viewBox="0 0 137 138"><defs><style>.a{fill:none;}.b{isolation:isolate;clip-path:url(#a);}.c{fill:#9d9d9d;}.d,.i{fill:#cecece;}.e{fill:url(#b);}.f{fill:#e2e2e2;}.g{fill:#ae8448;}.g,.h{opacity:0.6;}.h{fill:#707070;}.j{fill:#bebebe;}.k,.l,.m{stroke:none;}.l{fill:#c7c7c7;}.m{fill:#dedede;}</style><clipPath id="a"><rect class="a" x="-1" y="4" width="137" height="138"/></clipPath><linearGradient id="b" x1="0.5" y1="1" x2="0.5" gradientUnits="objectBoundingBox"><stop offset="0" stop-color="#fbf9f9"/><stop offset="1" stop-color="#eee"/></linearGradient></defs><g class="b" transform="translate(1 -4)"><g transform="translate(0 0)"><path class="c" d="M93.8-64.738,60.828-33.7a17.434,17.434,0,0,1,1.379,5.727,8.705,8.705,0,0,1-1.382,4.535L60.5-6.57A86.358,86.358,0,0,1,61.558,2.9c.044,3.358.575,5.359,0,7.386a25.18,25.18,0,0,0-.73,4.924V41.916C64.475,41.572,78.383,23.2,78.383,23.2L93.8,6.773A52.215,52.215,0,0,0,95.29-4.108,30.835,30.835,0,0,0,93.8-13.344v-24.49s1.924-2.16,1.924-8.886S93.8-64.738,93.8-64.738Z" transform="translate(1.414 87.495)"/><g class="d" transform="translate(2.906 89.712)"><path class="k" d="M 64.44337463378906 50.18577575683594 C 61.24295806884766 50.02127075195313 53.63918304443359 45.75820922851563 42.41411972045898 37.83185577392578 C 33.73578643798828 31.70382881164551 25.89205551147461 25.49517631530762 25.81384086608887 25.43317604064941 L 25.79558753967285 25.41870880126953 L 25.77497482299805 25.40785598754883 L 2.474079370498657 13.14643001556396 C 2.153518199920654 12.38271903991699 -0.3193204700946808 6.316119194030762 -0.5846784710884094 0.3945228457450867 C -0.8670917749404907 -5.907583713531494 1.340668201446533 -12.2221040725708 1.363001585006714 -12.28514385223389 L 1.379281520843506 -12.33110427856445 L 1.377094864845276 -12.37981033325195 L 0.6968682408332825 -27.55918312072754 L 0.694441556930542 -27.61341094970703 L 0.6697348952293396 -27.66176986694336 C 0.6378015279769897 -27.72426414489746 -2.524971723556519 -33.96687698364258 -2.650265216827393 -38.79091644287109 C -2.765564680099487 -43.22970962524414 -0.9665284156799316 -53.90897369384766 -0.6388720273971558 -55.81136322021484 L 64.44112396240234 -32.61252975463867 C 64.44235992431641 -28.45561790466309 64.46389007568359 45.37837219238281 64.44337463378906 50.18577575683594 Z"/><path class="l" d="M -0.4426727294921875 -55.47601699829102 C -0.8705291748046875 -52.9647331237793 -2.5101318359375 -43.02351760864258 -2.400360107421875 -38.79741287231445 C -2.276557922363281 -34.03160095214844 0.8606986999511719 -27.8375129699707 0.8923683166503906 -27.7755126953125 L 0.9417686462402344 -27.67879867553711 L 0.9466285705566406 -27.57038497924805 L 1.626842498779297 -12.39099884033203 L 1.631198883056641 -12.2935848236084 L 1.598640441894531 -12.20165634155273 C 1.576469421386719 -12.13907051086426 -0.6151885986328125 -5.870613098144531 -0.334930419921875 0.3833150863647461 C -0.07933807373046875 6.087117195129395 2.243049621582031 11.93515777587891 2.670188903808594 12.96713256835938 L 25.89138412475586 25.18663024902344 L 25.93261337280273 25.20833015441895 L 25.9691276550293 25.23727226257324 C 26.04728317260742 25.29921531677246 33.88405609130859 31.50239944458008 42.55668640136719 37.62648773193359 C 56.07186126708984 47.17007827758789 61.79068756103516 49.64325332641602 64.19431304931641 49.9144287109375 C 64.21299743652344 43.23005676269531 64.19282531738281 -26.80496597290039 64.19117736816406 -32.43621826171875 L -0.4426727294921875 -55.47601699829102 M -0.8344306945800781 -56.146484375 L 64.69107055664063 -32.78884124755859 C 64.69107055664063 -32.78884124755859 64.71614074707031 50.28008651733398 64.69107055664063 50.44021606445313 C 64.67121124267578 50.44055938720703 64.65094757080078 50.44073486328125 64.63076019287109 50.44073486328125 C 56.96040725708008 50.44073486328125 25.65854263305664 25.62910079956055 25.65854263305664 25.62910079956055 L 2.278770446777344 13.32615852355957 C 2.278770446777344 13.32615852355957 -0.5465736389160156 6.829401016235352 -0.8344306945800781 0.4057011604309082 C -1.122287750244141 -6.017984867095947 1.127342224121094 -12.36861324310303 1.127342224121094 -12.36861324310303 L 0.4471282958984375 -27.54799842834473 C 0.4471282958984375 -27.54799842834473 -2.771903991699219 -33.84565734863281 -2.900184631347656 -38.78442764282227 C -3.028472900390625 -43.72319793701172 -0.8344306945800781 -56.146484375 -0.8344306945800781 -56.146484375 Z"/></g><g class="e" transform="translate(54.145 -12.493)"><path class="k" d="M 13.43052577972412 69.14438629150391 L -51.60961151123047 45.99921798706055 C -49.90812683105469 44.69774627685547 -42.44450378417969 39.13020706176758 -34.64720153808594 35.47771072387695 C -31.26501655578613 33.89337539672852 -28.51641654968262 33.09005737304688 -26.47776794433594 33.09005737304688 C -24.66188430786133 33.09005737304688 -24.11805152893066 33.75750732421875 -24.11276817321777 33.76424407958984 L -24.00349998474121 33.91350936889648 L -23.83120155334473 33.84946060180664 C -23.74578475952148 33.81970977783203 -15.20561790466309 30.8320426940918 -7.957767486572266 27.16577529907227 C -6.366750717163086 26.36077499389648 -5.157850742340088 25.39117622375488 -3.988750696182251 24.45349311828613 C -2.697667360305786 23.41797637939453 -1.478184103965759 22.43987464904785 0.15606589615345 21.75330924987793 C 7.414566040039063 18.70399284362793 11.16913223266602 18.37477493286133 12.44644927978516 18.37477493286133 C 12.73364925384521 18.37477493286133 12.87361621856689 18.39239311218262 12.87499904632568 18.39257621765137 L 12.88538265228271 18.3939094543457 L 12.89651584625244 18.39445877075195 C 12.92803287506104 18.39585876464844 16.10671615600586 18.54230880737305 21.1967658996582 19.20847511291504 C 25.89359855651855 19.82317543029785 33.22481536865234 21.01874160766602 41.47786712646484 23.22360801696777 C 55.88064956665039 27.0713996887207 73.23488616943359 34.0172233581543 76.35402679443359 35.28253555297852 L 13.43052577972412 69.14438629150391 Z"/><path class="m" d="M 13.40978527069092 68.87164306640625 L 75.76663208007813 35.31473922729492 C 71.62323760986328 33.64517593383789 55.16893005371094 27.1400146484375 41.41334915161133 23.46514129638672 C 33.17643356323242 21.26459312438965 25.85933303833008 20.07105827331543 21.17149925231934 19.45730972290039 C 16.09011650085449 18.79202461242676 12.91686630249023 18.64560890197754 12.88539886474609 18.64420890808105 L 12.86576557159424 18.64357566833496 L 12.84368228912354 18.64060974121094 C 12.84239959716797 18.64044189453125 12.71249961853027 18.62477493286133 12.44644927978516 18.62477493286133 C 11.18428230285645 18.62477493286133 7.469482421875 18.95207595825195 0.2528992295265198 21.98379135131836 C -1.349084138870239 22.65680885314941 -2.555300712585449 23.62425804138184 -3.832334041595459 24.64850807189941 C -5.011417388916016 25.59420967102051 -6.230650901794434 26.57209205627441 -7.844933986663818 27.38885879516602 C -15.10748386383057 31.06255912780762 -23.66340065002441 34.05575942993164 -23.74898338317871 34.0855598449707 L -24.10463333129883 34.24389266967773 L -24.31243896484375 33.91574478149414 C -24.37201690673828 33.85327911376953 -24.91020202636719 33.34005737304688 -26.47776794433594 33.34005737304688 C -27.85398483276367 33.34005737304688 -30.37003326416016 33.75019073486328 -34.5411491394043 35.70409393310547 C -41.84861373901367 39.12714385986328 -48.86588287353516 44.24003601074219 -51.09026336669922 45.91867065429688 L 13.40978527069092 68.87164306640625 M 13.45126628875732 69.41712188720703 L -52.12475204467773 46.08126068115234 C -52.12475204467773 46.08126068115234 -43.71694946289063 39.45019149780273 -34.75325012207031 35.25130844116211 C -30.71564674377441 33.35996627807617 -28.11557388305664 32.84005737304688 -26.47776222229004 32.84005737304688 C -24.47954368591309 32.84005737304688 -23.9134349822998 33.61337661743164 -23.9134349822998 33.61337661743164 C -23.9134349822998 33.61337661743164 -15.3874340057373 30.64384269714355 -8.07061767578125 26.94269180297852 C -4.761117458343506 25.26820945739746 -3.107367515563965 22.85314178466797 0.05923255532979965 21.52282524108887 C 7.405916213989258 18.43645668029785 11.20992374420166 18.12478065490723 12.44645500183105 18.12478065490723 C 12.75927543640137 18.12478065490723 12.90761566162109 18.14470863342285 12.90761566162109 18.14470863342285 C 12.90761566162109 18.14470863342285 25.53439903259277 18.70542526245117 41.54240036010742 22.98207473754883 C 57.55039978027344 27.25870895385742 76.93961334228516 35.25130844116211 76.93961334228516 35.25130844116211 L 13.45126628875732 69.41712188720703 Z"/></g><path class="f" d="M124.7-64.738,61.128-30.572s2.661,3.48,2.659,6.3-2.665,4.992-2.665,4.992L60.5-.712s1.949,6.745,2.033,10.423c.084,3.7,1.109,5.9,0,8.13a16.809,16.809,0,0,0-1.408,5.42v29.4c7.032-.379,33.849-20.6,33.849-20.6L124.7,13.975S127.575,7.534,127.575,2A21.539,21.539,0,0,0,124.7-8.168V-35.124s3.444-2.377,3.444-9.781S124.7-64.738,124.7-64.738Z" transform="translate(6.469 87.495)"/><path class="g" d="M3.725-13,34.561,2.337V20.049L4.4,3.346,3.725,1.792,4.4.539,3.725-2.04,4.4-3.607,3.725-5.543l.892-1.432L3.725-9.3l.892-.957Z" transform="translate(33.035 65.889)"/><path class="g" d="M3.072-15.323l64.4,46.982.02,17.691L3.874.231Z" transform="translate(0.105 77.331)"/><path class="h" d="M.032-.19.6-.484S8.478,18.9,8.468,39.1.562,80.326.562,80.326l-.609.334S7.406,59.316,7.425,39.1.032-.19.032-.19Z" transform="translate(101.395 38.925)"/><path class="g" d="M3.14-5.26l63.67-47.375v17.712L3.14,12.379Z" transform="translate(64.457 114.251)"/><path class="g" d="M3.725-10.559l63.663-16V-11.31L3.725,7.214Z" transform="translate(63.872 78.746)"/><path class="f" d="M21.686,0a30.97,30.97,0,0,1-6.107,5.766C11.261,9.035.5,14.326.01,14.079S18.15.81,18.15.81Z" transform="translate(110.777 45.116) rotate(19)"/><path class="f" d="M27.663,0S17.588,8.732,13.271,12,.506,18.266.012,18.019,14.082,7.171,14.082,7.171Z" transform="translate(73.509 51.151) rotate(19)"/><path class="i" d="M-13.435,244.566c-.173-.13-8.1-3.427-10.214-5s-5-6.671-5-6.671Z" transform="translate(32.201 -171.332)"/><path class="j" d="M-1.1,18.877,61.965-14.931l.4.127L-.718,19.009Z" transform="translate(68.246 37.713)"/><path class="j" d="M2.37.438l.413.1L2.233.85l-.373-.1Z" transform="translate(99.204 37.905)"/><path class="g" d="M0,28.472,30.226,0,28.56,16.977,0,44.54l.813-2.1L0,41.995,1.05,40.1,0,39.518l.908-2.04L0,36.974l1.076-2.267L0,34.111l1.232-2.223L0,31.2l1.159-2.09Z" transform="matrix(-0.485, -0.875, 0.875, -0.485, 44.695, 48.03)"/><path class="f" d="M37.548,261.561s-9.3,8.889-12.586,10.841a3.6,3.6,0,0,1-2.741.416l5.031-3.794Z" transform="translate(45.329 -163.934)"/></g></g></svg>