<svg xmlns="http://www.w3.org/2000/svg" xmlns:xlink="http://www.w3.org/1999/xlink" width="240" height="110" viewBox="0 0 240 110"><defs><style>.a{fill:none;}.b{isolation:isolate;clip-path:url(#a);}.c{fill:#dcdcdc;font-size:130px;font-family:Roboto-Regular, Roboto;}.d{fill:#ae8448;opacity:0.6;}</style><clipPath id="a"><rect class="a" x="1" y="22" width="240" height="110"/></clipPath></defs><g class="b" transform="translate(-1 -22)"><text class="c" transform="translate(0 124)"><tspan x="0" y="0">4</tspan></text><text class="c" transform="translate(169 124)"><tspan x="0" y="0">4</tspan></text><g transform="translate(84.453 23.042)"><path class="d" d="M0,0,45.683.109l.668.974L45.683,2.46l.668,1.218-.573,1.268.573,1.277-.573,1.285.573,1.2L45.779,9.8l.573,1.311-.573,1.136.573,1.143H0l.577-1.029L0,11.269l.577-.879L0,9.2l.577-.89L0,7.085l.651-1.23L0,4.7.8,3.5,0,2.277l.8-1.12Z" transform="translate(18.916 0) rotate(15)"/><path class="d" d="M0,0,33.5.109l.49.974L33.5,2.46l.49,1.218-.42,1.268.42,1.277-.42,1.285.42,1.2L33.571,9.8l.42,1.311-.42,1.136.42,1.143H0l.423-1.029L0,11.269l.423-.879L0,9.2l.423-.89L0,7.085l.477-1.23L0,4.7.585,3.5,0,2.277l.585-1.12Z" transform="translate(3.09 25.065) rotate(-45)"/><path class="d" d="M0,0l58.88.109.861.974L58.881,2.46l.861,1.218L59,4.945l.738,1.277L59,7.508l.738,1.2L59,9.8l.738,1.311L59,12.247l.738,1.143H0l.744-1.029L0,11.269l.744-.879L0,9.2l.744-.89L0,7.085l.839-1.23L0,4.7,1.028,3.5,0,2.277l1.028-1.12Z" transform="translate(3.127 87.142) rotate(-93)"/><path class="d" d="M0,0,81.214.109l1.188.974L81.214,2.46,82.4,3.677,81.384,4.945,82.4,6.223,81.384,7.508l1.018,1.2L81.384,9.8,82.4,11.111l-1.018,1.136L82.4,13.39H0l1.026-1.029L0,11.269l1.026-.879L0,9.2l1.026-.89L0,7.085l1.157-1.23L0,4.7,1.418,3.5,0,2.277l1.418-1.12Z" transform="translate(55.814 93.291) rotate(-93)"/><path class="d" d="M0,0,57.865.109l.847.974L57.865,2.46l.847,1.218-.725,1.268.725,1.277-.725,1.285.725,1.2L57.986,9.8l.725,1.311-.725,1.136.725,1.143H0l.731-1.029L0,11.269l.731-.879L0,9.2l.731-.89L0,7.085l.824-1.23L0,4.7,1.01,3.5,0,2.277l1.01-1.12Z" transform="translate(21.631 96.693) rotate(-34)"/><path class="d" d="M0,0,28.425.109l.416.974L28.425,2.46l.416,1.218-.356,1.268.356,1.277-.356,1.285.356,1.2L28.485,9.8l.356,1.311-.356,1.136.356,1.143H0l.359-1.029L0,11.269l.359-.879L0,9.2l.359-.89L0,7.085l.4-1.23L0,4.7.5,3.5,0,2.277l.5-1.12Z" transform="translate(10.815 75.192) rotate(30)"/></g></g></svg>