<svg xmlns="http://www.w3.org/2000/svg" xmlns:xlink="http://www.w3.org/1999/xlink" width="191" height="168" viewBox="0 0 191 168"><defs><style>.a,.l{fill:none;}.b{isolation:isolate;clip-path:url(#a);}.c{fill:#eee;}.d{fill:#d8d8d8;}.e{fill:url(#b);}.f{fill:#e2e2e2;}.g{fill:#ececec;}.h{fill:#c2c2c2;}.i{fill:#dbdbdb;}.j{fill:#ae8448;opacity:0.6;}.k{fill:#f5f5f5;}.l{stroke:#9a9a9a;stroke-dasharray:2;}.m{fill:#fff;}.n{fill:#c9c9c9;}.o{fill:#e8e8e8;}.p,.q,.r,.s{stroke:none;}.q{fill:#cfcfcf;}.r{fill:#dedede;}.s{fill:#dbdbdb;}</style><clipPath id="a"><rect class="a" x="-1" y="9" width="191" height="168"/></clipPath><linearGradient id="b" x1="0.5" y1="0.972" x2="0.5" y2="0.028" gradientUnits="objectBoundingBox"><stop offset="0" stop-color="#fbf9f9"/><stop offset="0.34" stop-color="#f8f7f7"/><stop offset="1" stop-color="#eee"/></linearGradient></defs><g class="b" transform="translate(1 -9)"><g transform="translate(0 10.08)"><path class="c" d="M0,.563,63.941-37.58V45.649L0,83.792Z" transform="translate(65.576 55.798)"/><g class="d" transform="translate(1.31 89.15)"><path class="p" d="M 64.01622009277344 50.00068664550781 L 2.097632884979248 13.18022060394287 L -0.9928786754608154 -55.78611373901367 L 64.01622009277344 -32.61254119873047 L 64.01622009277344 50.00068664550781 Z"/><path class="q" d="M -0.7264823913574219 -55.42574310302734 L 2.341342926025391 13.03427124023438 L 63.76621627807617 49.56114959716797 L 63.76621627807617 -32.43624877929688 L -0.7264823913574219 -55.42574310302734 M -1.25927734375 -56.146484375 L 64.26622009277344 -32.78883361816406 L 64.26622009277344 50.44020843505859 L 1.853923797607422 13.3261547088623 L -1.25927734375 -56.146484375 Z"/></g><g class="e" transform="translate(52.125 -13.052)"><path class="p" d="M 13.42423057556152 69.13804626464844 L -51.44048309326172 46.05532455444336 L 12.93441390991211 18.40120887756348 L 76.70984649658203 31.38582801818848 L 13.42423057556152 69.13804626464844 Z"/><path class="r" d="M 13.39720821380615 68.86307525634766 L 76.02716827392578 31.50197219848633 L 12.96118259429932 18.66179466247559 L -50.75622177124023 46.03346252441406 L 13.39720821380615 68.86307525634766 M 13.45126438140869 69.41303253173828 L -52.12475204467773 46.07717895507813 L 12.90761375427246 18.14062881469727 L 77.39251708984375 31.26969528198242 L 13.45126438140869 69.41303253173828 Z"/></g><path class="f" d="M52.661-11.7,63.152-37.58V45.649L52.661,71.534Z" transform="translate(2.424 93.941)"/><g class="g" transform="translate(76.857 30.379)"><path class="p" d="M 78.59316253662109 70.90141296386719 L 52.910888671875 70.90141296386719 L 52.910888671875 -11.82763385772705 L 78.59316253662109 -11.82763385772705 L 78.59316253662109 70.90141296386719 Z"/><path class="s" d="M 53.160888671875 -11.57763671875 L 53.160888671875 70.65141296386719 L 78.34316253662109 70.65141296386719 L 78.34316253662109 -11.57763671875 L 53.160888671875 -11.57763671875 M 52.660888671875 -12.07763671875 L 78.84316253662109 -12.07763671875 L 78.84316253662109 71.15141296386719 L 52.660888671875 71.15141296386719 L 52.660888671875 -12.07763671875 Z"/></g><path class="h" d="M5.9,52.239,69.836,14.1,63.941,32.314,0,70.457Z" transform="translate(65.576 -14.096)"/><path class="i" d="M0,.563,63.941-37.58V45.649L0,21.282Z" transform="translate(65.576 55.798)"/><path class="j" d="M0,12.806,25.8,0,24.263,15.4,0,28.874l1.183-1.864L0,26.329l1.157-1.882L0,23.852l1.185-1.931L0,21.308l1.112-2.056L0,18.445l1.2-2.032L0,15.539,1.3,13.75Z" transform="translate(121.733 154.739) rotate(-126)"/><path class="j" d="M0,28.1,29.963,0l-1.7,16.9L0,44.171l.813-2.1L0,41.626l1.05-1.895L0,39.149l.908-2.04L0,36.605l1.076-2.267L0,33.742l1.232-2.223L0,30.836l1.159-2.09Z" transform="matrix(-0.485, -0.875, 0.875, -0.485, 40.978, 47.869)"/><path class="k" d="M.012.447,63.937-37.629,84.546-25.273,21.274,13.687Z" transform="translate(65.579 139.098)"/></g><path class="l" d="M4351.635,2042.52s66.407,5.031,84.519-15.093.484-26.249-6.754-21.949-8.864,12.751-3.986,16.545,12.116,6.218,25.124,1.882a27.3,27.3,0,0,0,16.838-15.446" transform="translate(-4278.667 -1945.885)"/><path class="m" d="M.021.615H.648l-.02,83.13H0Z" transform="translate(54.427 91.769)"/><path class="n" d="M0,.276.24,0,7.6,23.834l-.349.4Z" transform="translate(65.461 149.802) rotate(-41)"/><path class="n" d="M0,.4.348,0,73.694,12.135l-.271.312Z" transform="translate(86.539 163.044) rotate(-41)"/><path class="o" d="M.223.193,0,0,73.193,13.149l.267.232Z" transform="translate(71.174 48.194) rotate(-41)"/><path class="m" d="M0,.166.39,0,.883,27.975l-.571.242Z" transform="matrix(0.921, 0.391, -0.391, 0.921, 65.204, 66.284)"/><path class="f" d="M0,.115.271,0l1.72,19.044h-.3Z" transform="matrix(0.921, 0.391, -0.391, 0.921, 71.18, 48.108)"/></g></svg>