<svg xmlns="http://www.w3.org/2000/svg" xmlns:xlink="http://www.w3.org/1999/xlink" width="224" height="110" viewBox="0 0 224 110"><defs><style>.a{fill:none;}.b{isolation:isolate;clip-path:url(#a);}.c{fill:#ae8448;opacity:0.6;}.d{fill:#dcdcdc;font-size:129px;font-family:Roboto-Regular, Roboto;}</style><clipPath id="a"><rect class="a" x="9" y="21" width="224" height="110"/></clipPath></defs><g class="b" transform="translate(-9 -21)"><g transform="translate(83.568 22.967)"><path class="c" d="M0,0,45.668.109l.668.973-.668,1.376.668,1.217-.573,1.267.573,1.277-.573,1.285.573,1.2L45.764,9.8l.573,1.31-.573,1.136.573,1.143H0l.577-1.029L0,11.265l.577-.878L0,9.2l.577-.889L0,7.083l.65-1.23L0,4.7.8,3.5,0,2.276l.8-1.12Z" transform="translate(18.91 0) rotate(15)"/><path class="c" d="M0,0,33.49.109l.49.973-.49,1.376.49,1.217-.42,1.267.42,1.277-.42,1.285.42,1.2L33.56,9.8l.42,1.31-.42,1.136.42,1.143H0l.423-1.029L0,11.265l.423-.878L0,9.2l.423-.889L0,7.083l.477-1.23L0,4.7.585,3.5,0,2.276l.585-1.12Z" transform="translate(3.089 25.057) rotate(-45)"/><path class="c" d="M0,0,58.862.109l.861.973-.861,1.376.861,1.217-.738,1.267.738,1.277-.738,1.285.738,1.2L58.985,9.8l.738,1.31-.738,1.136.738,1.143H0l.744-1.029L0,11.265l.744-.878L0,9.2l.744-.889L0,7.083l.838-1.23L0,4.7,1.028,3.5,0,2.276l1.028-1.12Z" transform="translate(3.126 87.114) rotate(-93)"/><path class="c" d="M0,0,81.189.109l1.188.973L81.189,2.459l1.188,1.217L81.358,4.944l1.018,1.277L81.358,7.505l1.018,1.2L81.358,9.8l1.018,1.31-1.018,1.136,1.018,1.143H0l1.026-1.029L0,11.265l1.026-.878L0,9.2l1.026-.889L0,7.083l1.156-1.23L0,4.7,1.418,3.5,0,2.276l1.418-1.12Z" transform="translate(55.796 93.261) rotate(-93)"/><path class="c" d="M0,0,57.847.109l.846.973-.846,1.376.846,1.217-.725,1.267.725,1.277-.725,1.285.725,1.2L57.968,9.8l.725,1.31-.725,1.136.725,1.143H0l.731-1.029L0,11.265l.731-.878L0,9.2l.731-.889L0,7.083l.824-1.23L0,4.7,1.01,3.5,0,2.276l1.01-1.12Z" transform="translate(21.624 96.662) rotate(-34)"/><path class="c" d="M0,0,28.416.109l.416.973-.416,1.376.416,1.217-.356,1.267.356,1.277-.356,1.285.356,1.2L28.475,9.8l.356,1.31-.356,1.136.356,1.143H0l.359-1.029L0,11.265l.359-.878L0,9.2l.359-.889L0,7.083l.4-1.23L0,4.7.5,3.5,0,2.276l.5-1.12Z" transform="translate(10.812 75.168) rotate(30)"/></g><text class="d" transform="translate(0 123)"><tspan x="0" y="0">5</tspan></text><text class="d" transform="translate(166 123)"><tspan x="0" y="0">0</tspan></text></g></svg>