<svg xmlns="http://www.w3.org/2000/svg" xmlns:xlink="http://www.w3.org/1999/xlink" width="230" height="110" viewBox="0 0 230 110"><defs><style>.a{fill:none;}.b{isolation:isolate;clip-path:url(#a);}.c{fill:#dcdcdc;font-size:129px;font-family:Roboto-Regular, Roboto;}.d{fill:#ae8448;opacity:0.6;}</style><clipPath id="a"><rect class="a" x="2" y="22" width="230" height="110"/></clipPath></defs><g class="b" transform="translate(-2 -22)"><text class="c" transform="translate(0 123)"><tspan x="0" y="0">4</tspan></text><text class="c" transform="translate(166 123)"><tspan x="0" y="0">3</tspan></text><g transform="translate(84.652 23.072)"><path class="d" d="M0,0,45.627.109l.668.972-.668,1.375.668,1.216-.572,1.266.572,1.276L45.722,7.5l.572,1.2-.572,1.093.572,1.309-.572,1.135.572,1.142H0l.576-1.028L0,11.255l.576-.878L0,9.194l.576-.888L0,7.077.65,5.848,0,4.693l.8-1.2L0,2.274.8,1.156Z" transform="translate(18.893 0) rotate(15)"/><path class="d" d="M0,0,33.46.109l.49.972-.49,1.375.49,1.216-.42,1.266.42,1.276L33.53,7.5l.42,1.2-.42,1.093.42,1.309-.42,1.135.42,1.142H0l.423-1.028L0,11.255l.423-.878L0,9.194l.423-.888L0,7.076.477,5.848,0,4.693l.584-1.2L0,2.274.584,1.156Z" transform="translate(3.086 25.035) rotate(-45)"/><path class="d" d="M0,0,58.808.109l.86.972-.86,1.375.86,1.216-.737,1.266.737,1.276L58.931,7.5l.737,1.2-.737,1.093.737,1.309-.737,1.135.737,1.142H0l.743-1.028L0,11.255l.743-.878L0,9.194l.743-.888L0,7.077.838,5.848,0,4.693l1.027-1.2L0,2.274,1.027,1.156Z" transform="translate(3.123 87.034) rotate(-93)"/><path class="d" d="M0,0,81.114.109l1.187.972L81.114,2.457,82.3,3.673,81.284,4.939,82.3,6.215,81.284,7.5,82.3,8.7,81.284,9.788,82.3,11.1l-1.017,1.135L82.3,13.374H0l1.025-1.028L0,11.255l1.025-.878L0,9.194l1.025-.888L0,7.077,1.155,5.848,0,4.693l1.416-1.2L0,2.274,1.416,1.156Z" transform="translate(55.745 93.176) rotate(-93)"/><path class="d" d="M0,0,57.794.109l.846.972-.846,1.375.846,1.216-.725,1.266.725,1.276L57.915,7.5l.725,1.2-.725,1.093L58.64,11.1l-.725,1.135.725,1.142H0l.73-1.028L0,11.255l.73-.878L0,9.193l.73-.888L0,7.076.823,5.848,0,4.693l1.009-1.2L0,2.274,1.009,1.156Z" transform="translate(21.604 96.574) rotate(-34)"/><path class="d" d="M0,0,28.39.109l.415.972L28.39,2.457l.415,1.216-.356,1.266.356,1.276L28.449,7.5l.356,1.2-.356,1.093.356,1.309-.356,1.135.356,1.142H0l.359-1.028L0,11.255l.359-.878L0,9.194l.359-.888L0,7.077.4,5.848,0,4.693l.5-1.2L0,2.274.5,1.156Z" transform="translate(10.802 75.1) rotate(30)"/></g></g></svg>