<?xml version="1.0" encoding="utf-8"?>
<!-- Generator: Adobe Illustrator 25.2.0, SVG Export Plug-In . SVG Version: 6.00 Build 0)  -->
<svg version="1.1" id="Layer_1" xmlns="http://www.w3.org/2000/svg" xmlns:xlink="http://www.w3.org/1999/xlink" x="0px" y="0px"
	 viewBox="0 0 1299.34 136.91" style="enable-background:new 0 0 1299.34 136.91;" xml:space="preserve">
<path d="M106.39,97.5c0,7.4-1.5,13.6-4.5,18.59s-7.01,9.01-12.04,12.03c-5.02,3.02-10.77,5.21-17.24,6.57
	c-6.47,1.36-13.1,2.04-19.88,2.04c-11.84,0-22.17-2.77-30.99-8.33C12.92,122.85,5.67,115.82,0,107.31l24.42-14.43
	c1.36,2.34,3.05,4.6,5.09,6.75c2.04,2.16,4.28,4.07,6.75,5.74c2.47,1.67,5.15,3.02,8.05,4.07c2.9,1.05,5.83,1.57,8.79,1.57
	c2.47,0,5.18-0.15,8.14-0.46c2.96-0.31,5.74-0.93,8.33-1.85c2.59-0.92,4.75-2.19,6.48-3.79c1.73-1.6,2.59-3.76,2.59-6.48
	c0-2.34-0.71-4.32-2.13-5.92c-1.42-1.6-3.36-3.02-5.83-4.26c-2.47-1.23-5.37-2.28-8.7-3.15c-3.33-0.86-6.91-1.73-10.73-2.59
	c-5.06-1.11-10.36-2.5-15.91-4.16c-5.55-1.67-10.64-3.98-15.26-6.94c-4.63-2.96-8.45-6.81-11.47-11.56
	c-3.02-4.75-4.53-10.82-4.53-18.22c0-6.78,1.36-12.8,4.07-18.04c2.71-5.24,6.29-9.59,10.73-13.04c4.44-3.45,9.5-6.07,15.17-7.86
	C39.72,0.9,45.51,0,51.44,0C62.29,0,72,2.62,80.58,7.86c8.57,5.24,15.82,12,21.74,20.26L79.19,43.85c-1.12-2.1-2.6-4.19-4.46-6.29
	c-1.86-2.1-3.96-4.01-6.32-5.74c-2.35-1.73-4.92-3.15-7.71-4.26c-2.79-1.11-5.73-1.67-8.82-1.67c-2.35,0-4.71,0.31-7.06,0.92
	c-2.35,0.62-4.49,1.54-6.41,2.78c-1.92,1.23-3.5,2.75-4.74,4.53c-1.24,1.79-1.86,3.79-1.86,6.01c0,1.97,0.68,3.67,2.04,5.09
	c1.36,1.42,3.17,2.65,5.46,3.7c2.28,1.05,4.93,2.01,7.96,2.87c3.02,0.86,6.26,1.73,9.71,2.59c5.43,1.36,11.04,2.93,16.84,4.72
	c5.8,1.79,11.1,4.26,15.91,7.4c4.81,3.15,8.79,7.19,11.93,12.12C104.81,83.57,106.39,89.86,106.39,97.5z M239.97,29.6h-37.56v103.61
	h-27.75V29.6h-37.74V3.7h103.06V29.6z M383.54,3.7l-42.37,82.15v47.36h-27.75V85.85L271.05,3.7h28.86l27.38,55.69L354.68,3.7H383.54
	z M503.8,107.31v25.9h-82.7V3.7h27.38v103.61H503.8z M623.32,107.31v25.9h-81.96V3.7h80.85v25.9h-53.47v25.9h40.15v25.9h-40.15v25.9
	H623.32z M822.92,107.31c-6.41,8.88-14.15,16.04-23.22,21.46c-9.07,5.43-19.15,8.14-30.25,8.14c-9.38,0-18.2-1.79-26.46-5.37
	c-8.26-3.58-15.49-8.45-21.68-14.62c-6.19-6.17-11.1-13.41-14.71-21.74c-3.61-8.33-5.42-17.24-5.42-26.73
	c0-9.37,1.78-18.19,5.33-26.46c3.55-8.26,8.4-15.51,14.52-21.74c6.13-6.23,13.36-11.16,21.68-14.8C751.04,1.82,759.95,0,769.45,0
	c10.98,0,20.78,2.47,29.42,7.4c8.63,4.93,16.22,11.84,22.76,20.72L798.5,43.85c-1.48-2.34-3.15-4.59-5-6.75
	c-1.85-2.16-3.95-4.07-6.29-5.74c-2.34-1.67-5-2.99-7.96-3.98c-2.96-0.99-6.23-1.48-9.81-1.48c-5.55,0-10.79,1.17-15.73,3.52
	c-4.93,2.34-9.25,5.46-12.95,9.34c-3.7,3.89-6.6,8.42-8.7,13.6c-2.1,5.18-3.15,10.55-3.15,16.1c0,5.55,1.05,10.92,3.15,16.1
	c2.1,5.18,5,9.71,8.7,13.6s8.02,7,12.95,9.34c4.93,2.34,10.18,3.52,15.73,3.52c6.41,0,12.05-1.69,16.93-5.09
	c4.87-3.39,8.91-7.74,12.12-13.04L822.92,107.31z M934.67,87.88c7.03-3.82,12.7-9.22,17.02-16.19c4.32-6.97,6.48-14.71,6.48-23.22
	c0-6.29-1.2-12.15-3.61-17.58c-2.41-5.43-5.64-10.14-9.71-14.15c-4.07-4.01-8.82-7.18-14.25-9.53c-5.43-2.34-11.16-3.52-17.21-3.52
	H857.7v129.51h27.75V93.25h0v-8.73c0-0.06,0.01-0.11,0.01-0.17V67.35h-0.01V29.6h24.98c2.59,0,5.02,0.49,7.31,1.48
	c2.28,0.99,4.26,2.34,5.92,4.07c1.67,1.73,2.99,3.73,3.98,6.01c0.99,2.28,1.48,4.72,1.48,7.31s-0.49,5.03-1.48,7.31
	c-0.99,2.28-2.31,4.29-3.98,6.01c-1.67,1.73-3.64,3.08-5.92,4.07c-2.28,0.99-4.72,1.48-7.31,1.48H906v26.19l26.08,39.67h32.19
	L934.67,87.88z M1085.46,107.31v25.9h-81.96V3.7h80.85v25.9h-53.47v25.9h40.15v25.9h-40.15v25.9H1085.46z M1299.34,3.7
	l-35.89,129.51h-35.34l-19.61-78.26l-19.61,78.26h-35.34L1117.46,3.7h30.53l22.94,91.95l22.2-91.95h30.71l22.2,91.95l22.94-91.95
	H1299.34z"/>
</svg>
